<?xml version="1.0" encoding="utf-8"?>
<!-- Generator: Adobe Illustrator 24.0.1, SVG Export Plug-In . SVG Version: 6.00 Build 0)  -->
<svg version="1.1" id="Layer_1" xmlns="http://www.w3.org/2000/svg" xmlns:xlink="http://www.w3.org/1999/xlink" x="0px" y="0px"
	 viewBox="0 0 512 512" style="enable-background:new 0 0 512 512;" xml:space="preserve">
<path d="M256,8C119,8,8,119,8,256s111,248,248,248s248-111,248-248S393,8,256,8z M324.5,248.6c-2.8,11-13.8,17.6-24.9,14.9
	l-88.3-22.1L162,326.8l124.2,71.7c9.8,5.7,13.2,18.2,7.5,28s-18.2,13.2-28,7.5l-141.9-82c-9.8-5.7-13.2-18.2-7.5-28l53.8-93l-15-3.7
	c-11-2.8-17.7-13.9-14.9-24.9c2.8-11,13.8-17.6,24.9-14.9l26.3,6.6l47.8-82.9c5.7-9.8,18.2-13.2,28-7.5c9.8,5.7,13.1,18.2,7.5,28
	l-42,72.8l77,19.3C320.6,226.5,327.3,237.6,324.5,248.6z"/>
</svg>
